<svg width="752" height="272" viewBox="0 0 752 272" fill="none" xmlns="http://www.w3.org/2000/svg">
<path d="M4.3071 3.71873H113.607C118.986 3.71873 123.451 4.73359 127.003 6.76331C130.657 8.79303 133.397 11.4317 135.224 14.6792C137.152 17.9268 138.116 21.3265 138.116 24.8785C138.116 28.6335 137.101 32.2363 135.072 35.6868C133.143 39.1373 130.2 42.0296 126.242 44.3638C122.284 46.698 117.312 48.0681 111.324 48.474C110.106 49.0829 109.294 49.8441 108.888 50.7574C108.482 51.6708 108.533 52.6349 109.04 53.6498C109.548 54.6646 110.715 55.6795 112.542 56.6943C119.849 57.3033 125.887 58.9778 130.657 61.7179C135.528 64.458 139.182 67.8071 141.617 71.765C144.053 75.7229 145.271 79.8331 145.271 84.0955C145.271 87.2416 144.662 90.3369 143.444 93.3815C142.226 96.3246 140.298 99.014 137.66 101.45C135.122 103.784 131.773 105.661 127.612 107.082C123.553 108.503 118.631 109.213 112.846 109.213H0.653608C0.653608 102.617 0.856579 96.1723 1.26252 89.8802C1.66847 83.4866 2.1759 77.1438 2.78481 70.8516C3.49521 64.5595 4.05338 58.2166 4.45933 51.823C4.86527 45.3279 5.06824 38.7821 5.06824 32.1855C5.06824 27.5172 5.0175 22.8488 4.91601 18.1805C4.81453 13.4106 4.61156 8.59006 4.3071 3.71873ZM55.7604 58.6733C54.5426 59.4852 53.68 60.8045 53.1725 62.6313C52.6651 64.3565 52.4114 66.234 52.4114 68.2637C52.4114 69.786 52.5129 71.3083 52.7159 72.8306C53.0203 74.2514 53.4263 75.52 53.9337 76.6363C54.4411 77.7527 55.05 78.5646 55.7604 79.072C55.7604 79.1735 55.7604 79.2242 55.7604 79.2242C55.7604 79.2242 55.8112 79.2242 55.9127 79.2242H78.1381C82.096 79.2242 84.9376 78.3108 86.6629 76.4841C88.4896 74.6573 89.403 72.4754 89.403 69.9383C89.403 68.6189 89.1493 67.2996 88.6418 65.9803C88.1344 64.661 87.424 63.4432 86.5106 62.3268C85.5973 61.109 84.4809 60.1956 83.1616 59.5867C81.9438 58.8763 80.6245 58.5211 79.2037 58.5211H55.9127C55.9127 58.5211 55.8619 58.5718 55.7604 58.6733ZM55.9127 32.3377C55.8112 32.3377 55.7604 32.3885 55.7604 32.49C55.1515 32.8959 54.5426 33.7078 53.9337 34.9256C53.4263 36.042 53.0203 37.3613 52.7159 38.8836C52.5129 40.3044 52.4114 41.8267 52.4114 43.4504C52.4114 45.4802 52.6651 47.3577 53.1725 49.0829C53.68 50.8082 54.5426 52.0767 55.7604 52.8886C55.7604 52.8886 55.8112 52.8886 55.9127 52.8886H76.768C79.1022 52.8886 81.0304 52.3812 82.5527 51.3663C84.1765 50.25 85.445 48.8292 86.3584 47.1039C87.2718 45.2772 87.7285 43.4504 87.7285 41.6237C87.7285 39.188 86.9673 37.0568 85.445 35.2301C83.9228 33.3019 81.5378 32.3377 78.2903 32.3377H55.9127Z" fill="url(#paint0_linear_46_1556)"/>
<path d="M4.3071 3.71873H113.607C118.986 3.71873 123.451 4.73359 127.003 6.76331C130.657 8.79303 133.397 11.4317 135.224 14.6792C137.152 17.9268 138.116 21.3265 138.116 24.8785C138.116 28.6335 137.101 32.2363 135.072 35.6868C133.143 39.1373 130.2 42.0296 126.242 44.3638C122.284 46.698 117.312 48.0681 111.324 48.474C110.106 49.0829 109.294 49.8441 108.888 50.7574C108.482 51.6708 108.533 52.6349 109.04 53.6498C109.548 54.6646 110.715 55.6795 112.542 56.6943C119.849 57.3033 125.887 58.9778 130.657 61.7179C135.528 64.458 139.182 67.8071 141.617 71.765C144.053 75.7229 145.271 79.8331 145.271 84.0955C145.271 87.2416 144.662 90.3369 143.444 93.3815C142.226 96.3246 140.298 99.014 137.66 101.45C135.122 103.784 131.773 105.661 127.612 107.082C123.553 108.503 118.631 109.213 112.846 109.213H0.653608C0.653608 102.617 0.856579 96.1723 1.26252 89.8802C1.66847 83.4866 2.1759 77.1438 2.78481 70.8516C3.49521 64.5595 4.05338 58.2166 4.45933 51.823C4.86527 45.3279 5.06824 38.7821 5.06824 32.1855C5.06824 27.5172 5.0175 22.8488 4.91601 18.1805C4.81453 13.4106 4.61156 8.59006 4.3071 3.71873ZM55.7604 58.6733C54.5426 59.4852 53.68 60.8045 53.1725 62.6313C52.6651 64.3565 52.4114 66.234 52.4114 68.2637C52.4114 69.786 52.5129 71.3083 52.7159 72.8306C53.0203 74.2514 53.4263 75.52 53.9337 76.6363C54.4411 77.7527 55.05 78.5646 55.7604 79.072C55.7604 79.1735 55.7604 79.2242 55.7604 79.2242C55.7604 79.2242 55.8112 79.2242 55.9127 79.2242H78.1381C82.096 79.2242 84.9376 78.3108 86.6629 76.4841C88.4896 74.6573 89.403 72.4754 89.403 69.9383C89.403 68.6189 89.1493 67.2996 88.6418 65.9803C88.1344 64.661 87.424 63.4432 86.5106 62.3268C85.5973 61.109 84.4809 60.1956 83.1616 59.5867C81.9438 58.8763 80.6245 58.5211 79.2037 58.5211H55.9127C55.9127 58.5211 55.8619 58.5718 55.7604 58.6733ZM55.9127 32.3377C55.8112 32.3377 55.7604 32.3885 55.7604 32.49C55.1515 32.8959 54.5426 33.7078 53.9337 34.9256C53.4263 36.042 53.0203 37.3613 52.7159 38.8836C52.5129 40.3044 52.4114 41.8267 52.4114 43.4504C52.4114 45.4802 52.6651 47.3577 53.1725 49.0829C53.68 50.8082 54.5426 52.0767 55.7604 52.8886C55.7604 52.8886 55.8112 52.8886 55.9127 52.8886H76.768C79.1022 52.8886 81.0304 52.3812 82.5527 51.3663C84.1765 50.25 85.445 48.8292 86.3584 47.1039C87.2718 45.2772 87.7285 43.4504 87.7285 41.6237C87.7285 39.188 86.9673 37.0568 85.445 35.2301C83.9228 33.3019 81.5378 32.3377 78.2903 32.3377H55.9127Z" fill="url(#paint1_linear_46_1556)" fill-opacity="0.24"/>
<path d="M270.391 32.1855H213.458C211.123 32.1855 209.347 32.6422 208.13 33.5556C206.912 34.469 206.303 36.1435 206.303 38.5791V44.8205C206.303 45.8354 206.455 46.6473 206.759 47.2562C207.064 47.7636 207.47 48.1188 207.977 48.3218C208.485 48.5247 208.941 48.677 209.347 48.7785C209.855 48.7785 210.159 48.7785 210.261 48.7785H267.194V64.7625H210.261C209.652 64.7625 209.043 64.864 208.434 65.0669C207.825 65.2699 207.318 65.6758 206.912 66.2848C206.506 66.7922 206.303 67.5026 206.303 68.416V74.8096C206.303 75.317 206.404 75.9767 206.607 76.7886C206.81 77.6004 207.165 78.4123 207.673 79.2242C208.18 79.9346 209.043 80.5943 210.261 81.2032C211.479 81.7106 213.001 81.9643 214.828 81.9643H275.719V109.213H153.936C153.835 104.038 153.885 98.7602 154.088 93.3815C154.393 87.9012 154.799 82.3195 155.306 76.6363C155.814 70.8516 156.321 65.0669 156.828 59.2822C157.437 53.3961 157.945 47.5606 158.351 41.7759C158.757 35.8898 158.96 30.1051 158.96 24.4219C158.96 20.9713 158.909 17.5208 158.807 14.0703C158.807 10.6198 158.604 7.16925 158.199 3.71873H270.391V32.1855Z" fill="url(#paint2_linear_46_1556)"/>
<path d="M270.391 32.1855H213.458C211.123 32.1855 209.347 32.6422 208.13 33.5556C206.912 34.469 206.303 36.1435 206.303 38.5791V44.8205C206.303 45.8354 206.455 46.6473 206.759 47.2562C207.064 47.7636 207.47 48.1188 207.977 48.3218C208.485 48.5247 208.941 48.677 209.347 48.7785C209.855 48.7785 210.159 48.7785 210.261 48.7785H267.194V64.7625H210.261C209.652 64.7625 209.043 64.864 208.434 65.0669C207.825 65.2699 207.318 65.6758 206.912 66.2848C206.506 66.7922 206.303 67.5026 206.303 68.416V74.8096C206.303 75.317 206.404 75.9767 206.607 76.7886C206.81 77.6004 207.165 78.4123 207.673 79.2242C208.18 79.9346 209.043 80.5943 210.261 81.2032C211.479 81.7106 213.001 81.9643 214.828 81.9643H275.719V109.213H153.936C153.835 104.038 153.885 98.7602 154.088 93.3815C154.393 87.9012 154.799 82.3195 155.306 76.6363C155.814 70.8516 156.321 65.0669 156.828 59.2822C157.437 53.3961 157.945 47.5606 158.351 41.7759C158.757 35.8898 158.96 30.1051 158.96 24.4219C158.96 20.9713 158.909 17.5208 158.807 14.0703C158.807 10.6198 158.604 7.16925 158.199 3.71873H270.391V32.1855Z" fill="url(#paint3_linear_46_1556)" fill-opacity="0.24"/>
<path d="M397.481 3.71873C398.394 9.60491 399.663 15.5418 401.286 21.5295C402.91 27.4157 404.737 33.3526 406.767 39.3403C408.796 45.3279 410.826 51.3156 412.856 57.3033C414.987 63.2909 417.017 69.2279 418.945 75.114C420.975 80.8987 422.852 86.6327 424.577 92.3159C426.303 97.9991 427.724 103.632 428.84 109.213H368.71L367.035 98.2528C366.629 97.7454 366.02 97.238 365.208 96.7305C364.396 96.2231 363.483 95.9694 362.468 95.9694H338.568C337.249 95.9694 336.234 96.1723 335.524 96.5783C334.813 96.9842 334.255 97.5424 333.849 98.2528L332.022 109.213H277.524C278.844 103.632 280.417 97.9991 282.244 92.3159C284.07 86.6327 285.999 80.8987 288.028 75.114C290.159 69.2279 292.341 63.3417 294.574 57.4555C296.807 51.5693 298.887 45.6324 300.815 39.6447C302.845 33.5556 304.723 27.5172 306.448 21.5295C308.173 15.5418 309.594 9.60491 310.71 3.71873H397.481ZM335.676 83.7911C335.676 84.8059 335.93 85.8208 336.437 86.8357C336.944 87.749 337.706 88.2057 338.72 88.2057H362.164C363.179 88.2057 364.092 88.0027 364.904 87.5968C365.716 87.0894 366.375 86.4297 366.883 85.6178C367.39 84.7044 367.644 83.6388 367.644 82.421C367.644 81.7106 367.39 79.9854 366.883 77.2452C366.477 74.4036 365.868 71.1053 365.056 67.3504C364.346 63.4939 363.483 59.4852 362.468 55.3243C361.453 51.1634 360.337 47.3069 359.119 43.7549C358.003 40.1014 356.886 37.2091 355.77 35.0779C354.755 32.8452 353.74 31.7288 352.725 31.7288C352.624 31.7288 352.37 31.7288 351.964 31.7288C351.66 31.7288 351.305 31.7288 350.899 31.7288C349.681 31.7288 348.412 32.9467 347.093 35.3823C345.774 37.818 344.556 40.964 343.44 44.8205C342.323 48.5755 341.308 52.6349 340.395 56.9988C339.482 61.2612 338.67 65.3714 337.959 69.3293C337.249 73.2873 336.691 76.5856 336.285 79.2242C335.879 81.7614 335.676 83.2836 335.676 83.7911Z" fill="url(#paint4_linear_46_1556)"/>
<path d="M397.481 3.71873C398.394 9.60491 399.663 15.5418 401.286 21.5295C402.91 27.4157 404.737 33.3526 406.767 39.3403C408.796 45.3279 410.826 51.3156 412.856 57.3033C414.987 63.2909 417.017 69.2279 418.945 75.114C420.975 80.8987 422.852 86.6327 424.577 92.3159C426.303 97.9991 427.724 103.632 428.84 109.213H368.71L367.035 98.2528C366.629 97.7454 366.02 97.238 365.208 96.7305C364.396 96.2231 363.483 95.9694 362.468 95.9694H338.568C337.249 95.9694 336.234 96.1723 335.524 96.5783C334.813 96.9842 334.255 97.5424 333.849 98.2528L332.022 109.213H277.524C278.844 103.632 280.417 97.9991 282.244 92.3159C284.07 86.6327 285.999 80.8987 288.028 75.114C290.159 69.2279 292.341 63.3417 294.574 57.4555C296.807 51.5693 298.887 45.6324 300.815 39.6447C302.845 33.5556 304.723 27.5172 306.448 21.5295C308.173 15.5418 309.594 9.60491 310.71 3.71873H397.481ZM335.676 83.7911C335.676 84.8059 335.93 85.8208 336.437 86.8357C336.944 87.749 337.706 88.2057 338.72 88.2057H362.164C363.179 88.2057 364.092 88.0027 364.904 87.5968C365.716 87.0894 366.375 86.4297 366.883 85.6178C367.39 84.7044 367.644 83.6388 367.644 82.421C367.644 81.7106 367.39 79.9854 366.883 77.2452C366.477 74.4036 365.868 71.1053 365.056 67.3504C364.346 63.4939 363.483 59.4852 362.468 55.3243C361.453 51.1634 360.337 47.3069 359.119 43.7549C358.003 40.1014 356.886 37.2091 355.77 35.0779C354.755 32.8452 353.74 31.7288 352.725 31.7288C352.624 31.7288 352.37 31.7288 351.964 31.7288C351.66 31.7288 351.305 31.7288 350.899 31.7288C349.681 31.7288 348.412 32.9467 347.093 35.3823C345.774 37.818 344.556 40.964 343.44 44.8205C342.323 48.5755 341.308 52.6349 340.395 56.9988C339.482 61.2612 338.67 65.3714 337.959 69.3293C337.249 73.2873 336.691 76.5856 336.285 79.2242C335.879 81.7614 335.676 83.2836 335.676 83.7911Z" fill="url(#paint5_linear_46_1556)" fill-opacity="0.24"/>
<path d="M509.921 48.6262C522.809 48.6262 533.618 49.2859 542.345 50.6052C551.175 51.823 558.279 53.7005 563.657 56.2377C569.036 58.7748 572.943 61.9209 575.379 65.6758C577.815 69.3293 579.033 73.744 579.033 78.9197C579.033 84.5015 577.054 89.4743 573.096 93.8382C569.138 98.1006 563.708 101.653 556.807 104.494C550.008 107.336 542.092 109.518 533.059 111.04C524.129 112.461 514.64 113.171 504.593 113.171C493.937 113.171 484.042 112.461 474.908 111.04C465.774 109.619 457.808 107.437 451.008 104.494C444.31 101.45 439.134 97.5931 435.481 92.9248C431.827 88.155 430.001 82.5225 430.001 76.0274L486.173 70.6994C485.767 73.338 486.325 75.723 487.848 77.8542C489.471 79.8839 491.805 81.5584 494.85 82.8777C497.895 84.197 501.447 84.8567 505.506 84.8567C508.449 84.8567 511.088 84.5522 513.422 83.9433C515.756 83.2329 517.684 82.3195 519.207 81.2032C520.83 79.9854 522.048 78.7168 522.86 77.3975C523.773 75.9767 524.23 74.5559 524.23 73.1351C524.23 70.0905 523.012 67.9593 520.577 66.7414C518.141 65.5236 514.386 64.9147 509.312 64.9147C509.109 64.9147 508.601 64.9147 507.79 64.9147C507.079 64.9147 506.166 64.9147 505.049 64.9147C503.933 64.9147 502.766 64.9147 501.548 64.9147C500.432 64.9147 499.366 64.9147 498.351 64.9147C497.336 64.9147 496.525 64.9147 495.916 64.9147C482.925 64.9147 472.016 64.1536 463.186 62.6313C454.459 61.0075 447.507 58.8763 442.331 56.2377C437.257 53.599 433.756 50.5545 431.827 47.1039C430.001 43.6534 429.341 40.0507 429.848 36.2957C432.081 31.8303 434.821 27.7201 438.069 23.9652C441.316 20.1087 445.122 16.7597 449.486 13.9181C453.85 10.975 458.67 8.48856 463.948 6.45885C469.225 4.42913 474.959 2.8561 481.149 1.73975C487.442 0.623413 494.19 0.0652417 501.396 0.0652417C512.153 -0.239218 521.947 0.521925 530.776 2.34867C539.707 4.07393 547.318 6.71257 553.61 10.2646C559.902 13.7151 564.723 17.876 568.072 22.7473C571.523 27.6187 573.248 32.9974 573.248 38.8836L519.511 42.5371C520.323 39.391 520.221 36.8031 519.207 34.7734C518.192 32.6422 516.416 31.0692 513.879 30.0543C511.443 28.938 508.5 28.3798 505.049 28.3798C502.411 28.3798 499.823 28.6843 497.286 29.2932C494.749 29.8006 492.414 30.6632 490.283 31.8811C488.253 32.9974 486.63 34.3167 485.412 35.839C484.194 37.3613 483.585 39.1373 483.585 41.167C483.585 42.5878 483.991 43.9071 484.803 45.125C485.716 46.2413 487.086 47.1039 488.913 47.7129C490.841 48.3218 493.226 48.6262 496.068 48.6262C496.271 48.6262 496.829 48.6262 497.742 48.6262C498.757 48.6262 499.874 48.6262 501.091 48.6262C502.309 48.6262 503.527 48.6262 504.745 48.6262C506.064 48.6262 507.181 48.6262 508.094 48.6262C509.007 48.6262 509.616 48.6262 509.921 48.6262Z" fill="url(#paint6_linear_46_1556)"/>
<path d="M509.921 48.6262C522.809 48.6262 533.618 49.2859 542.345 50.6052C551.175 51.823 558.279 53.7005 563.657 56.2377C569.036 58.7748 572.943 61.9209 575.379 65.6758C577.815 69.3293 579.033 73.744 579.033 78.9197C579.033 84.5015 577.054 89.4743 573.096 93.8382C569.138 98.1006 563.708 101.653 556.807 104.494C550.008 107.336 542.092 109.518 533.059 111.04C524.129 112.461 514.64 113.171 504.593 113.171C493.937 113.171 484.042 112.461 474.908 111.04C465.774 109.619 457.808 107.437 451.008 104.494C444.31 101.45 439.134 97.5931 435.481 92.9248C431.827 88.155 430.001 82.5225 430.001 76.0274L486.173 70.6994C485.767 73.338 486.325 75.723 487.848 77.8542C489.471 79.8839 491.805 81.5584 494.85 82.8777C497.895 84.197 501.447 84.8567 505.506 84.8567C508.449 84.8567 511.088 84.5522 513.422 83.9433C515.756 83.2329 517.684 82.3195 519.207 81.2032C520.83 79.9854 522.048 78.7168 522.86 77.3975C523.773 75.9767 524.23 74.5559 524.23 73.1351C524.23 70.0905 523.012 67.9593 520.577 66.7414C518.141 65.5236 514.386 64.9147 509.312 64.9147C509.109 64.9147 508.601 64.9147 507.79 64.9147C507.079 64.9147 506.166 64.9147 505.049 64.9147C503.933 64.9147 502.766 64.9147 501.548 64.9147C500.432 64.9147 499.366 64.9147 498.351 64.9147C497.336 64.9147 496.525 64.9147 495.916 64.9147C482.925 64.9147 472.016 64.1536 463.186 62.6313C454.459 61.0075 447.507 58.8763 442.331 56.2377C437.257 53.599 433.756 50.5545 431.827 47.1039C430.001 43.6534 429.341 40.0507 429.848 36.2957C432.081 31.8303 434.821 27.7201 438.069 23.9652C441.316 20.1087 445.122 16.7597 449.486 13.9181C453.85 10.975 458.67 8.48856 463.948 6.45885C469.225 4.42913 474.959 2.8561 481.149 1.73975C487.442 0.623413 494.19 0.0652417 501.396 0.0652417C512.153 -0.239218 521.947 0.521925 530.776 2.34867C539.707 4.07393 547.318 6.71257 553.61 10.2646C559.902 13.7151 564.723 17.876 568.072 22.7473C571.523 27.6187 573.248 32.9974 573.248 38.8836L519.511 42.5371C520.323 39.391 520.221 36.8031 519.207 34.7734C518.192 32.6422 516.416 31.0692 513.879 30.0543C511.443 28.938 508.5 28.3798 505.049 28.3798C502.411 28.3798 499.823 28.6843 497.286 29.2932C494.749 29.8006 492.414 30.6632 490.283 31.8811C488.253 32.9974 486.63 34.3167 485.412 35.839C484.194 37.3613 483.585 39.1373 483.585 41.167C483.585 42.5878 483.991 43.9071 484.803 45.125C485.716 46.2413 487.086 47.1039 488.913 47.7129C490.841 48.3218 493.226 48.6262 496.068 48.6262C496.271 48.6262 496.829 48.6262 497.742 48.6262C498.757 48.6262 499.874 48.6262 501.091 48.6262C502.309 48.6262 503.527 48.6262 504.745 48.6262C506.064 48.6262 507.181 48.6262 508.094 48.6262C509.007 48.6262 509.616 48.6262 509.921 48.6262Z" fill="url(#paint7_linear_46_1556)" fill-opacity="0.24"/>
<path d="M710.075 3.71873V38.1224H677.803C675.773 38.1224 674.2 38.4269 673.084 39.0358C671.968 39.5432 671.206 40.3044 670.8 41.3192C670.496 42.2326 670.344 43.2982 670.344 44.516C670.344 48.7785 670.394 53.1423 670.496 57.6077C670.699 62.0731 670.902 66.5892 671.105 71.1561C671.409 75.7229 671.663 80.2391 671.866 84.7045C672.069 89.0683 672.17 93.3307 672.17 97.4917C672.272 101.551 672.272 105.458 672.17 109.213H617.064C618.078 102.921 618.89 96.4768 619.499 89.8802C620.21 83.1822 620.717 76.3826 621.022 69.4816C621.427 62.5805 621.63 55.781 621.63 49.0829C621.63 47.6621 621.58 46.3428 621.478 45.125C621.377 43.8056 621.123 42.6386 620.717 41.6237C620.413 40.6088 619.854 39.797 619.043 39.188C618.231 38.4776 617.165 38.1224 615.846 38.1224H582.964V3.71873H710.075Z" fill="url(#paint8_linear_46_1556)"/>
<path d="M710.075 3.71873V38.1224H677.803C675.773 38.1224 674.2 38.4269 673.084 39.0358C671.968 39.5432 671.206 40.3044 670.8 41.3192C670.496 42.2326 670.344 43.2982 670.344 44.516C670.344 48.7785 670.394 53.1423 670.496 57.6077C670.699 62.0731 670.902 66.5892 671.105 71.1561C671.409 75.7229 671.663 80.2391 671.866 84.7045C672.069 89.0683 672.17 93.3307 672.17 97.4917C672.272 101.551 672.272 105.458 672.17 109.213H617.064C618.078 102.921 618.89 96.4768 619.499 89.8802C620.21 83.1822 620.717 76.3826 621.022 69.4816C621.427 62.5805 621.63 55.781 621.63 49.0829C621.63 47.6621 621.58 46.3428 621.478 45.125C621.377 43.8056 621.123 42.6386 620.717 41.6237C620.413 40.6088 619.854 39.797 619.043 39.188C618.231 38.4776 617.165 38.1224 615.846 38.1224H582.964V3.71873H710.075Z" fill="url(#paint9_linear_46_1556)" fill-opacity="0.24"/>
<path d="M78.2246 118.532C85.5782 118.532 91.9369 119.527 97.3006 121.516C102.751 123.506 107.293 126.188 110.926 129.562C114.56 132.85 117.242 136.613 118.972 140.852C120.789 145.091 121.697 149.503 121.697 154.088C121.697 158.847 120.746 163.432 118.842 167.844C117.026 172.169 114.3 176.019 110.667 179.393C107.033 182.767 102.491 185.449 97.0411 187.439C91.6773 189.342 85.4052 190.294 78.2246 190.294H49.1564C48.2048 190.294 47.3829 190.467 46.6908 190.813C45.9987 191.072 45.5229 191.505 45.2634 192.111C45.0038 192.716 45.0038 193.538 45.2634 194.576L45.6527 208.461H0.103815C-0.0692101 203.271 -0.0259537 198.08 0.233584 192.889C0.493122 187.612 0.795915 182.291 1.14197 176.928C1.57453 171.477 1.92058 165.984 2.18012 160.447C2.52617 154.824 2.69919 149.114 2.69919 143.318C2.69919 139.165 2.65593 135.056 2.56942 130.989C2.56942 126.837 2.43965 122.684 2.18012 118.532H78.2246ZM65.118 169.401C67.8864 169.401 70.2655 168.795 72.2553 167.584C74.2451 166.373 75.7158 164.773 76.6674 162.783C77.7056 160.793 78.2246 158.717 78.2246 156.554C78.2246 154.478 77.7056 152.488 76.6674 150.585C75.7158 148.681 74.1585 147.124 71.9957 145.913C69.9194 144.615 67.2375 143.966 63.9501 143.966H49.416C47.7722 143.966 46.5178 144.529 45.6527 145.653C44.8741 146.778 44.4847 148.162 44.4847 149.806V163.302C44.4847 164.773 44.7443 165.941 45.2634 166.806C45.8689 167.671 46.5178 168.32 47.2099 168.752C47.9885 169.185 48.6373 169.401 49.1564 169.401H65.118Z" fill="url(#paint10_linear_46_1556)"/>
<path d="M78.2246 118.532C85.5782 118.532 91.9369 119.527 97.3006 121.516C102.751 123.506 107.293 126.188 110.926 129.562C114.56 132.85 117.242 136.613 118.972 140.852C120.789 145.091 121.697 149.503 121.697 154.088C121.697 158.847 120.746 163.432 118.842 167.844C117.026 172.169 114.3 176.019 110.667 179.393C107.033 182.767 102.491 185.449 97.0411 187.439C91.6773 189.342 85.4052 190.294 78.2246 190.294H49.1564C48.2048 190.294 47.3829 190.467 46.6908 190.813C45.9987 191.072 45.5229 191.505 45.2634 192.111C45.0038 192.716 45.0038 193.538 45.2634 194.576L45.6527 208.461H0.103815C-0.0692101 203.271 -0.0259537 198.08 0.233584 192.889C0.493122 187.612 0.795915 182.291 1.14197 176.928C1.57453 171.477 1.92058 165.984 2.18012 160.447C2.52617 154.824 2.69919 149.114 2.69919 143.318C2.69919 139.165 2.65593 135.056 2.56942 130.989C2.56942 126.837 2.43965 122.684 2.18012 118.532H78.2246ZM65.118 169.401C67.8864 169.401 70.2655 168.795 72.2553 167.584C74.2451 166.373 75.7158 164.773 76.6674 162.783C77.7056 160.793 78.2246 158.717 78.2246 156.554C78.2246 154.478 77.7056 152.488 76.6674 150.585C75.7158 148.681 74.1585 147.124 71.9957 145.913C69.9194 144.615 67.2375 143.966 63.9501 143.966H49.416C47.7722 143.966 46.5178 144.529 45.6527 145.653C44.8741 146.778 44.4847 148.162 44.4847 149.806V163.302C44.4847 164.773 44.7443 165.941 45.2634 166.806C45.8689 167.671 46.5178 168.32 47.2099 168.752C47.9885 169.185 48.6373 169.401 49.1564 169.401H65.118Z" fill="url(#paint11_linear_46_1556)" fill-opacity="0.24"/>
<path d="M172.626 175.889C172.626 177.533 173.102 178.658 174.054 179.263C175.092 179.869 176.39 180.172 177.947 180.172H223.626V208.461H126.818C126.818 203.876 127.034 199.205 127.467 194.446C127.899 189.602 128.375 184.671 128.894 179.653C129.413 174.549 129.846 169.401 130.192 164.21C130.625 158.933 130.841 153.656 130.841 148.378C130.841 143.447 130.668 138.516 130.322 133.585C129.976 128.567 129.5 123.549 128.894 118.532H174.313C174.313 123.117 174.227 127.832 174.054 132.676C173.881 137.521 173.665 142.409 173.405 147.34C173.232 152.272 173.059 157.16 172.886 162.004C172.713 166.762 172.626 171.391 172.626 175.889Z" fill="url(#paint12_linear_46_1556)"/>
<path d="M172.626 175.889C172.626 177.533 173.102 178.658 174.054 179.263C175.092 179.869 176.39 180.172 177.947 180.172H223.626V208.461H126.818C126.818 203.876 127.034 199.205 127.467 194.446C127.899 189.602 128.375 184.671 128.894 179.653C129.413 174.549 129.846 169.401 130.192 164.21C130.625 158.933 130.841 153.656 130.841 148.378C130.841 143.447 130.668 138.516 130.322 133.585C129.976 128.567 129.5 123.549 128.894 118.532H174.313C174.313 123.117 174.227 127.832 174.054 132.676C173.881 137.521 173.665 142.409 173.405 147.34C173.232 152.272 173.059 157.16 172.886 162.004C172.713 166.762 172.626 171.391 172.626 175.889Z" fill="url(#paint13_linear_46_1556)" fill-opacity="0.24"/>
<path d="M330.523 118.532C331.301 123.549 332.383 128.61 333.767 133.715C335.151 138.732 336.708 143.793 338.438 148.898C340.169 154.002 341.899 159.106 343.629 164.21C345.446 169.315 347.176 174.376 348.82 179.393C350.55 184.324 352.151 189.212 353.621 194.057C355.092 198.902 356.303 203.703 357.255 208.461H305.996L304.569 199.118C304.223 198.686 303.704 198.253 303.012 197.82C302.319 197.388 301.541 197.172 300.676 197.172H280.302C279.177 197.172 278.312 197.345 277.707 197.691C277.101 198.037 276.625 198.513 276.279 199.118L274.722 208.461H228.265C229.389 203.703 230.73 198.902 232.288 194.057C233.845 189.212 235.489 184.324 237.219 179.393C239.036 174.376 240.896 169.358 242.799 164.34C244.702 159.322 246.476 154.261 248.119 149.157C249.85 143.966 251.45 138.819 252.921 133.715C254.391 128.61 255.603 123.549 256.554 118.532H330.523ZM277.836 186.79C277.836 187.655 278.053 188.52 278.485 189.385C278.918 190.164 279.567 190.553 280.432 190.553H300.416C301.281 190.553 302.06 190.38 302.752 190.034C303.444 189.602 304.006 189.039 304.439 188.347C304.872 187.569 305.088 186.66 305.088 185.622C305.088 185.017 304.872 183.546 304.439 181.21C304.093 178.788 303.574 175.976 302.882 172.775C302.276 169.488 301.541 166.07 300.676 162.523C299.811 158.976 298.859 155.689 297.821 152.661C296.869 149.546 295.918 147.081 294.966 145.264C294.101 143.361 293.236 142.409 292.37 142.409C292.284 142.409 292.068 142.409 291.722 142.409C291.462 142.409 291.159 142.409 290.813 142.409C289.775 142.409 288.694 143.447 287.569 145.524C286.444 147.6 285.406 150.282 284.455 153.569C283.503 156.77 282.638 160.231 281.859 163.951C281.081 167.584 280.389 171.088 279.783 174.462C279.177 177.836 278.702 180.648 278.355 182.897C278.009 185.06 277.836 186.357 277.836 186.79Z" fill="url(#paint14_linear_46_1556)"/>
<path d="M330.523 118.532C331.301 123.549 332.383 128.61 333.767 133.715C335.151 138.732 336.708 143.793 338.438 148.898C340.169 154.002 341.899 159.106 343.629 164.21C345.446 169.315 347.176 174.376 348.82 179.393C350.55 184.324 352.151 189.212 353.621 194.057C355.092 198.902 356.303 203.703 357.255 208.461H305.996L304.569 199.118C304.223 198.686 303.704 198.253 303.012 197.82C302.319 197.388 301.541 197.172 300.676 197.172H280.302C279.177 197.172 278.312 197.345 277.707 197.691C277.101 198.037 276.625 198.513 276.279 199.118L274.722 208.461H228.265C229.389 203.703 230.73 198.902 232.288 194.057C233.845 189.212 235.489 184.324 237.219 179.393C239.036 174.376 240.896 169.358 242.799 164.34C244.702 159.322 246.476 154.261 248.119 149.157C249.85 143.966 251.45 138.819 252.921 133.715C254.391 128.61 255.603 123.549 256.554 118.532H330.523ZM277.836 186.79C277.836 187.655 278.053 188.52 278.485 189.385C278.918 190.164 279.567 190.553 280.432 190.553H300.416C301.281 190.553 302.06 190.38 302.752 190.034C303.444 189.602 304.006 189.039 304.439 188.347C304.872 187.569 305.088 186.66 305.088 185.622C305.088 185.017 304.872 183.546 304.439 181.21C304.093 178.788 303.574 175.976 302.882 172.775C302.276 169.488 301.541 166.07 300.676 162.523C299.811 158.976 298.859 155.689 297.821 152.661C296.869 149.546 295.918 147.081 294.966 145.264C294.101 143.361 293.236 142.409 292.37 142.409C292.284 142.409 292.068 142.409 291.722 142.409C291.462 142.409 291.159 142.409 290.813 142.409C289.775 142.409 288.694 143.447 287.569 145.524C286.444 147.6 285.406 150.282 284.455 153.569C283.503 156.77 282.638 160.231 281.859 163.951C281.081 167.584 280.389 171.088 279.783 174.462C279.177 177.836 278.702 180.648 278.355 182.897C278.009 185.06 277.836 186.357 277.836 186.79Z" fill="url(#paint15_linear_46_1556)" fill-opacity="0.24"/>
<path d="M421.927 118.532H470.591C466.698 126.404 462.675 134.147 458.522 141.76C454.37 149.287 450.13 156.9 445.805 164.6C441.566 172.213 437.283 179.956 432.958 187.828C432.525 188.866 432.266 189.861 432.179 190.813C432.093 191.765 432.049 192.716 432.049 193.668V208.461H385.073V191.592C385.073 190.986 384.987 190.294 384.814 189.515C384.727 188.737 384.554 187.915 384.294 187.05C381.613 181.945 378.931 177.057 376.249 172.386C373.653 167.628 371.058 163.042 368.463 158.63C365.954 154.218 363.445 149.849 360.936 145.524C358.427 141.111 355.875 136.699 353.28 132.287C350.684 127.875 348.089 123.29 345.494 118.532H397.661C398.439 122.598 399.175 126.75 399.867 130.989C400.559 135.229 401.337 139.511 402.203 143.837C403.154 148.076 404.192 152.315 405.317 156.554C405.663 157.333 406.139 157.981 406.744 158.5C407.35 159.02 408.042 159.366 408.821 159.539C409.686 159.625 410.508 159.495 411.286 159.149C412.065 158.803 412.757 158.284 413.363 157.592C414.314 154.824 415.266 151.882 416.218 148.768C417.169 145.653 418.034 142.409 418.813 139.035C419.592 135.575 420.24 132.114 420.759 128.654C421.279 125.193 421.668 121.819 421.927 118.532Z" fill="url(#paint16_linear_46_1556)"/>
<path d="M421.927 118.532H470.591C466.698 126.404 462.675 134.147 458.522 141.76C454.37 149.287 450.13 156.9 445.805 164.6C441.566 172.213 437.283 179.956 432.958 187.828C432.525 188.866 432.266 189.861 432.179 190.813C432.093 191.765 432.049 192.716 432.049 193.668V208.461H385.073V191.592C385.073 190.986 384.987 190.294 384.814 189.515C384.727 188.737 384.554 187.915 384.294 187.05C381.613 181.945 378.931 177.057 376.249 172.386C373.653 167.628 371.058 163.042 368.463 158.63C365.954 154.218 363.445 149.849 360.936 145.524C358.427 141.111 355.875 136.699 353.28 132.287C350.684 127.875 348.089 123.29 345.494 118.532H397.661C398.439 122.598 399.175 126.75 399.867 130.989C400.559 135.229 401.337 139.511 402.203 143.837C403.154 148.076 404.192 152.315 405.317 156.554C405.663 157.333 406.139 157.981 406.744 158.5C407.35 159.02 408.042 159.366 408.821 159.539C409.686 159.625 410.508 159.495 411.286 159.149C412.065 158.803 412.757 158.284 413.363 157.592C414.314 154.824 415.266 151.882 416.218 148.768C417.169 145.653 418.034 142.409 418.813 139.035C419.592 135.575 420.24 132.114 420.759 128.654C421.279 125.193 421.668 121.819 421.927 118.532Z" fill="url(#paint17_linear_46_1556)" fill-opacity="0.24"/>
<path d="M579.063 142.798H530.53C528.54 142.798 527.026 143.188 525.988 143.966C524.95 144.745 524.431 146.172 524.431 148.249V153.569C524.431 154.434 524.56 155.126 524.82 155.646C525.079 156.078 525.425 156.381 525.858 156.554C526.291 156.727 526.68 156.857 527.026 156.943C527.458 156.943 527.718 156.943 527.805 156.943H576.338V170.569H527.805C527.285 170.569 526.766 170.655 526.247 170.829C525.728 171.002 525.296 171.348 524.95 171.867C524.604 172.299 524.431 172.905 524.431 173.683V179.134C524.431 179.566 524.517 180.129 524.69 180.821C524.863 181.513 525.166 182.205 525.598 182.897C526.031 183.503 526.766 184.065 527.805 184.584C528.843 185.017 530.14 185.233 531.698 185.233H583.605V208.461H479.79C479.704 204.049 479.747 199.551 479.92 194.965C480.179 190.294 480.525 185.536 480.958 180.691C481.391 175.76 481.823 170.828 482.256 165.897C482.775 160.88 483.207 155.905 483.553 150.974C483.899 145.956 484.072 141.025 484.072 136.18C484.072 133.239 484.029 130.297 483.943 127.356C483.943 124.415 483.77 121.473 483.424 118.532H579.063V142.798Z" fill="url(#paint18_linear_46_1556)"/>
<path d="M579.063 142.798H530.53C528.54 142.798 527.026 143.188 525.988 143.966C524.95 144.745 524.431 146.172 524.431 148.249V153.569C524.431 154.434 524.56 155.126 524.82 155.646C525.079 156.078 525.425 156.381 525.858 156.554C526.291 156.727 526.68 156.857 527.026 156.943C527.458 156.943 527.718 156.943 527.805 156.943H576.338V170.569H527.805C527.285 170.569 526.766 170.655 526.247 170.829C525.728 171.002 525.296 171.348 524.95 171.867C524.604 172.299 524.431 172.905 524.431 173.683V179.134C524.431 179.566 524.517 180.129 524.69 180.821C524.863 181.513 525.166 182.205 525.598 182.897C526.031 183.503 526.766 184.065 527.805 184.584C528.843 185.017 530.14 185.233 531.698 185.233H583.605V208.461H479.79C479.704 204.049 479.747 199.551 479.92 194.965C480.179 190.294 480.525 185.536 480.958 180.691C481.391 175.76 481.823 170.828 482.256 165.897C482.775 160.88 483.207 155.905 483.553 150.974C483.899 145.956 484.072 141.025 484.072 136.18C484.072 133.239 484.029 130.297 483.943 127.356C483.943 124.415 483.77 121.473 483.424 118.532H579.063V142.798Z" fill="url(#paint19_linear_46_1556)" fill-opacity="0.24"/>
<path d="M589.556 118.532H677.02C683.941 118.532 689.738 119.829 694.409 122.425C699.081 124.934 702.585 128.178 704.921 132.157C707.343 136.05 708.554 140.203 708.554 144.615C708.554 149.46 707.213 154.045 704.531 158.371C701.936 162.696 698 166.243 692.722 169.012C687.532 171.78 681.087 173.164 673.387 173.164C673.127 173.164 672.306 173.164 670.921 173.164C669.537 173.164 668.153 173.164 666.769 173.164C665.385 173.164 664.476 173.164 664.044 173.164C663.871 173.164 663.611 173.251 663.265 173.424C663.005 173.597 662.876 173.813 662.876 174.073C662.876 174.851 663.092 175.457 663.524 175.889C663.957 176.322 664.476 176.625 665.082 176.798C665.687 176.884 666.336 176.928 667.028 176.928H694.539L710.631 208.461H655.219C653.922 204.222 652.537 200.026 651.067 195.874C649.682 191.635 648.082 187.569 646.265 183.676C644.448 179.783 642.286 176.106 639.777 172.645H656.906C658.55 172.645 660.064 172.342 661.448 171.737C662.919 171.045 664.217 170.136 665.341 169.012C666.466 167.887 667.331 166.589 667.937 165.119C668.542 163.561 668.845 161.918 668.845 160.187C668.845 157.765 668.239 155.646 667.028 153.829C665.904 152.012 664.346 150.541 662.357 149.417C660.453 148.292 658.204 147.73 655.609 147.73H637.96C636.662 147.73 635.538 148.032 634.586 148.638C633.721 149.157 633.072 149.849 632.64 150.714C632.207 151.579 631.991 152.488 631.991 153.439C631.991 158.371 632.164 162.307 632.51 165.248C632.856 168.19 633.418 170.223 634.197 171.348C634.975 172.472 635.927 172.948 637.052 172.775C636.36 172.775 635.667 173.208 634.975 174.073C634.37 174.938 633.851 176.192 633.418 177.836C632.986 179.393 632.769 181.34 632.769 183.676C632.769 186.098 632.769 188.78 632.769 191.721C632.856 194.576 632.899 197.474 632.899 200.416C632.986 203.271 633.159 205.953 633.418 208.461H588.907C588.821 203.79 588.821 198.945 588.907 193.927C589.08 188.823 589.297 183.632 589.556 178.355C589.902 172.991 590.162 167.584 590.335 162.134C590.508 156.684 590.594 151.277 590.594 145.913C590.594 141.328 590.508 136.743 590.335 132.157C590.162 127.572 589.902 123.03 589.556 118.532Z" fill="url(#paint20_linear_46_1556)"/>
<path d="M589.556 118.532H677.02C683.941 118.532 689.738 119.829 694.409 122.425C699.081 124.934 702.585 128.178 704.921 132.157C707.343 136.05 708.554 140.203 708.554 144.615C708.554 149.46 707.213 154.045 704.531 158.371C701.936 162.696 698 166.243 692.722 169.012C687.532 171.78 681.087 173.164 673.387 173.164C673.127 173.164 672.306 173.164 670.921 173.164C669.537 173.164 668.153 173.164 666.769 173.164C665.385 173.164 664.476 173.164 664.044 173.164C663.871 173.164 663.611 173.251 663.265 173.424C663.005 173.597 662.876 173.813 662.876 174.073C662.876 174.851 663.092 175.457 663.524 175.889C663.957 176.322 664.476 176.625 665.082 176.798C665.687 176.884 666.336 176.928 667.028 176.928H694.539L710.631 208.461H655.219C653.922 204.222 652.537 200.026 651.067 195.874C649.682 191.635 648.082 187.569 646.265 183.676C644.448 179.783 642.286 176.106 639.777 172.645H656.906C658.55 172.645 660.064 172.342 661.448 171.737C662.919 171.045 664.217 170.136 665.341 169.012C666.466 167.887 667.331 166.589 667.937 165.119C668.542 163.561 668.845 161.918 668.845 160.187C668.845 157.765 668.239 155.646 667.028 153.829C665.904 152.012 664.346 150.541 662.357 149.417C660.453 148.292 658.204 147.73 655.609 147.73H637.96C636.662 147.73 635.538 148.032 634.586 148.638C633.721 149.157 633.072 149.849 632.64 150.714C632.207 151.579 631.991 152.488 631.991 153.439C631.991 158.371 632.164 162.307 632.51 165.248C632.856 168.19 633.418 170.223 634.197 171.348C634.975 172.472 635.927 172.948 637.052 172.775C636.36 172.775 635.667 173.208 634.975 174.073C634.37 174.938 633.851 176.192 633.418 177.836C632.986 179.393 632.769 181.34 632.769 183.676C632.769 186.098 632.769 188.78 632.769 191.721C632.856 194.576 632.899 197.474 632.899 200.416C632.986 203.271 633.159 205.953 633.418 208.461H588.907C588.821 203.79 588.821 198.945 588.907 193.927C589.08 188.823 589.297 183.632 589.556 178.355C589.902 172.991 590.162 167.584 590.335 162.134C590.508 156.684 590.594 151.277 590.594 145.913C590.594 141.328 590.508 136.743 590.335 132.157C590.162 127.572 589.902 123.03 589.556 118.532Z" fill="url(#paint21_linear_46_1556)" fill-opacity="0.24"/>
<path fill-rule="evenodd" clip-rule="evenodd" d="M495.571 268.219C489.185 268.588 483.554 264.068 482.534 257.753L475.811 216.146C475.247 212.66 476.188 209.098 478.398 206.344C480.609 203.59 483.883 201.902 487.409 201.698L499.368 201.008C502.721 200.814 505.863 201.968 508.24 204.019C510.389 201.682 513.4 200.197 516.708 200.006L528.667 199.315C532.767 199.078 536.722 200.875 539.241 204.119C540.585 205.849 541.428 207.872 541.734 209.978C543.724 209.916 545.826 209.967 547.953 210.223L548.056 208.961C548.562 202.758 553.561 197.877 559.773 197.518L570.536 196.896C571.142 196.861 571.745 196.871 572.342 196.923C572.928 196.803 573.528 196.724 574.14 196.688L584.903 196.066C588.508 195.858 592.027 197.222 594.55 199.805C596.443 201.744 597.636 204.227 597.99 206.866C599.297 206.681 600.604 206.558 601.899 206.483C604.992 206.305 608.454 206.375 611.898 207.1C613.09 206.641 614.358 206.363 615.659 206.288L626.422 205.667C628.115 205.569 629.752 205.814 631.263 206.343C632.711 205.641 634.31 205.211 635.989 205.114L636.494 205.085L636.593 203.889C637.107 197.694 642.103 192.822 648.309 192.464L659.071 191.842C662.681 191.633 666.203 193.001 668.727 195.59C670.656 197.569 671.857 200.115 672.18 202.814C674.734 203.053 677.385 203.664 679.902 204.858C684.705 202.265 690.181 201.383 695.203 201.093C697.185 200.979 699.389 200.95 701.671 201.159L701.759 200.082C702.265 193.879 707.263 188.998 713.476 188.639L724.238 188.017C724.844 187.982 725.448 187.992 726.044 188.044C726.63 187.924 727.23 187.844 727.842 187.809L738.605 187.187C742.21 186.979 745.729 188.343 748.252 190.926C750.775 193.51 752.055 197.06 751.761 200.659L748.319 242.853C747.813 249.055 742.815 253.936 736.603 254.295L725.84 254.917C725.234 254.952 724.63 254.943 724.034 254.891C723.448 255.011 722.848 255.09 722.236 255.125L711.473 255.747C710.976 255.776 710.48 255.775 709.989 255.744C709.505 255.831 709.011 255.889 708.509 255.918L700.138 256.402C698.923 256.472 697.731 256.365 696.591 256.099C694.152 257.041 691.662 257.491 689.29 257.628C686.117 257.812 681.865 257.709 677.753 256.064C674.226 257.91 670.368 258.782 666.551 259.002C664.133 259.142 661.391 258.98 658.639 258.177C657.38 258.694 656.024 259.01 654.617 259.091L647.253 259.517C646.219 261.276 644.99 262.951 643.514 264.472C639.153 268.967 633.71 271.038 628.058 271.365L618.491 271.917C614.874 272.126 611.345 270.753 608.821 268.154C607.206 266.492 606.104 264.433 605.602 262.22C603.984 262.486 602.365 262.65 600.77 262.742C596.977 262.961 592.622 262.807 588.423 261.523C586.782 262.472 584.904 263.059 582.9 263.174L572.137 263.796C571.531 263.831 570.928 263.822 570.331 263.77C569.746 263.89 569.146 263.969 568.534 264.004L557.771 264.626C555.78 264.741 553.815 264.377 552.03 263.592C547.909 265.298 543.485 266.051 539.173 266.3C534.434 266.574 528.88 266.302 523.802 264.11C521.788 265.801 519.245 266.852 516.499 267.01L495.571 268.219Z" fill="white"/>
<path d="M494.894 254.952L488.171 213.345L500.13 212.654L505.697 249.828L517.47 211.653L529.429 210.962L515.822 253.743L494.894 254.952Z" fill="url(#paint22_linear_46_1556)"/>
<path d="M494.894 254.952L488.171 213.345L500.13 212.654L505.697 249.828L517.47 211.653L529.429 210.962L515.822 253.743L494.894 254.952Z" fill="url(#paint23_linear_46_1556)" fill-opacity="0.24"/>
<path d="M541.065 221.688C552.784 221.011 557.419 225.423 556.552 236.392C555.626 247.364 550.215 252.356 538.496 253.033C526.776 253.71 522.142 249.298 523.068 238.326C523.934 227.357 529.345 222.365 541.065 221.688ZM533.831 237.704C533.368 243.19 534.938 245.44 539.123 245.198C543.309 244.956 545.326 242.5 545.789 237.014C546.193 231.531 544.623 229.282 540.437 229.524C536.252 229.765 534.234 232.222 533.831 237.704Z" fill="url(#paint24_linear_46_1556)"/>
<path d="M541.065 221.688C552.784 221.011 557.419 225.423 556.552 236.392C555.626 247.364 550.215 252.356 538.496 253.033C526.776 253.71 522.142 249.298 523.068 238.326C523.934 227.357 529.345 222.365 541.065 221.688ZM533.831 237.704C533.368 243.19 534.938 245.44 539.123 245.198C543.309 244.956 545.326 242.5 545.789 237.014C546.193 231.531 544.623 229.282 540.437 229.524C536.252 229.765 534.234 232.222 533.831 237.704Z" fill="url(#paint25_linear_46_1556)" fill-opacity="0.24"/>
<path d="M571.298 208.543L567.856 250.737L557.094 251.359L560.535 209.165L571.298 208.543Z" fill="url(#paint26_linear_46_1556)"/>
<path d="M571.298 208.543L567.856 250.737L557.094 251.359L560.535 209.165L571.298 208.543Z" fill="url(#paint27_linear_46_1556)" fill-opacity="0.24"/>
<path d="M585.665 207.713L582.223 249.907L571.46 250.529L574.902 208.335L585.665 207.713Z" fill="url(#paint28_linear_46_1556)"/>
<path d="M585.665 207.713L582.223 249.907L571.46 250.529L574.902 208.335L585.665 207.713Z" fill="url(#paint29_linear_46_1556)" fill-opacity="0.24"/>
<path d="M595.78 237.125C595.423 241.345 596.902 243.06 600.609 242.846C603.48 242.68 604.972 241.514 605.724 238.951L615.889 238.363C614.028 245.61 609.301 248.943 600.093 249.475C588.792 250.128 584.337 245.705 585.263 234.733C586.129 223.764 591.36 218.783 602.661 218.13C613.962 217.477 618.417 221.899 617.551 232.868L617.305 235.882L595.78 237.125ZM602.204 224.756C598.437 224.973 596.687 226.874 596.331 231.094L607.094 230.472C607.45 226.252 605.971 224.538 602.204 224.756Z" fill="url(#paint30_linear_46_1556)"/>
<path d="M595.78 237.125C595.423 241.345 596.902 243.06 600.609 242.846C603.48 242.68 604.972 241.514 605.724 238.951L615.889 238.363C614.028 245.61 609.301 248.943 600.093 249.475C588.792 250.128 584.337 245.705 585.263 234.733C586.129 223.764 591.36 218.783 602.661 218.13C613.962 217.477 618.417 221.899 617.551 232.868L617.305 235.882L595.78 237.125ZM602.204 224.756C598.437 224.973 596.687 226.874 596.331 231.094L607.094 230.472C607.45 226.252 605.971 224.538 602.204 224.756Z" fill="url(#paint31_linear_46_1556)" fill-opacity="0.24"/>
<path d="M630.272 243.772L636.751 216.761L647.514 216.139L639.101 246.021C636.81 254.133 633.3 257.755 627.38 258.097L617.813 258.65L618.39 252.017L624.967 251.637C627.479 251.492 628.841 250.154 629.509 247.175L621.138 247.659L616.421 217.935L627.184 217.313L630.272 243.772Z" fill="url(#paint32_linear_46_1556)"/>
<path d="M630.272 243.772L636.751 216.761L647.514 216.139L639.101 246.021C636.81 254.133 633.3 257.755 627.38 258.097L617.813 258.65L618.39 252.017L624.967 251.637C627.479 251.492 628.841 250.154 629.509 247.175L621.138 247.659L616.421 217.935L627.184 217.313L630.272 243.772Z" fill="url(#paint33_linear_46_1556)" fill-opacity="0.24"/>
<path d="M657.012 237.728L653.94 245.824L645.569 246.308L649.071 204.11L659.834 203.488L658.167 223.443C659.861 217.465 663.121 214.697 668.442 214.39C676.814 213.906 680.013 218.401 679.147 229.37C678.221 240.342 674.245 245.251 665.874 245.735C660.552 246.042 657.709 243.567 657.012 237.728ZM662.312 238.081C666.079 237.864 667.917 235.418 668.38 229.932C668.784 224.449 667.393 222.19 663.626 222.407C659.859 222.625 658.021 225.071 657.617 230.553C657.154 236.04 658.545 238.299 662.312 238.081Z" fill="url(#paint34_linear_46_1556)"/>
<path d="M657.012 237.728L653.94 245.824L645.569 246.308L649.071 204.11L659.834 203.488L658.167 223.443C659.861 217.465 663.121 214.697 668.442 214.39C676.814 213.906 680.013 218.401 679.147 229.37C678.221 240.342 674.245 245.251 665.874 245.735C660.552 246.042 657.709 243.567 657.012 237.728ZM662.312 238.081C666.079 237.864 667.917 235.418 668.38 229.932C668.784 224.449 667.393 222.19 663.626 222.407C659.859 222.625 658.021 225.071 657.617 230.553C657.154 236.04 658.545 238.299 662.312 238.081Z" fill="url(#paint35_linear_46_1556)" fill-opacity="0.24"/>
<path d="M678.673 235.336C679.218 228.166 683.945 224.833 694.409 224.229L698.595 223.987L698.705 222.781C698.954 219.826 697.865 218.629 695.115 218.788C692.424 218.944 691.23 220.093 691.017 222.625L680.852 223.212C681.362 216.463 685.92 213.32 695.965 212.74C706.01 212.16 710.034 215.347 709.357 223.365L707.832 242.651L699.461 243.135L697.561 237.245C696.089 241.889 693.217 244.095 688.613 244.361C681.079 244.796 678.103 242.089 678.673 235.336ZM695.113 230.187C691.346 230.405 689.661 231.342 689.461 234.113C689.293 236.403 690.291 237.065 692.802 236.92C696.151 236.726 697.732 235.015 698.052 231.217L698.103 230.014L695.113 230.187Z" fill="url(#paint36_linear_46_1556)"/>
<path d="M678.673 235.336C679.218 228.166 683.945 224.833 694.409 224.229L698.595 223.987L698.705 222.781C698.954 219.826 697.865 218.629 695.115 218.788C692.424 218.944 691.23 220.093 691.017 222.625L680.852 223.212C681.362 216.463 685.92 213.32 695.965 212.74C706.01 212.16 710.034 215.347 709.357 223.365L707.832 242.651L699.461 243.135L697.561 237.245C696.089 241.889 693.217 244.095 688.613 244.361C681.079 244.796 678.103 242.089 678.673 235.336ZM695.113 230.187C691.346 230.405 689.661 231.342 689.461 234.113C689.293 236.403 690.291 237.065 692.802 236.92C696.151 236.726 697.732 235.015 698.052 231.217L698.103 230.014L695.113 230.187Z" fill="url(#paint37_linear_46_1556)" fill-opacity="0.24"/>
<path d="M725 199.664L721.559 241.858L710.796 242.48L714.238 200.286L725 199.664Z" fill="url(#paint38_linear_46_1556)"/>
<path d="M725 199.664L721.559 241.858L710.796 242.48L714.238 200.286L725 199.664Z" fill="url(#paint39_linear_46_1556)" fill-opacity="0.24"/>
<path d="M739.367 198.834L735.925 241.028L725.163 241.65L728.604 199.456L739.367 198.834Z" fill="url(#paint40_linear_46_1556)"/>
<path d="M739.367 198.834L735.925 241.028L725.163 241.65L728.604 199.456L739.367 198.834Z" fill="url(#paint41_linear_46_1556)" fill-opacity="0.24"/>
<defs>
<linearGradient id="paint0_linear_46_1556" x1="375.453" y1="0" x2="375.453" y2="272.082" gradientUnits="userSpaceOnUse">
<stop stop-color="white"/>
<stop offset="0.86012" stop-color="#EEF5FD"/>
<stop offset="1" stop-color="#D8E8F9"/>
</linearGradient>
<linearGradient id="paint1_linear_46_1556" x1="35.6869" y1="376.039" x2="648.071" y2="-156.53" gradientUnits="userSpaceOnUse">
<stop stop-color="white" stop-opacity="0"/>
<stop offset="0.47553" stop-color="white" stop-opacity="0.201388"/>
<stop offset="0.615" stop-color="white"/>
<stop offset="0.735172" stop-color="white" stop-opacity="0.160494"/>
</linearGradient>
<linearGradient id="paint2_linear_46_1556" x1="375.453" y1="0" x2="375.453" y2="272.082" gradientUnits="userSpaceOnUse">
<stop stop-color="white"/>
<stop offset="0.86012" stop-color="#EEF5FD"/>
<stop offset="1" stop-color="#D8E8F9"/>
</linearGradient>
<linearGradient id="paint3_linear_46_1556" x1="35.6869" y1="376.039" x2="648.071" y2="-156.53" gradientUnits="userSpaceOnUse">
<stop stop-color="white" stop-opacity="0"/>
<stop offset="0.47553" stop-color="white" stop-opacity="0.201388"/>
<stop offset="0.615" stop-color="white"/>
<stop offset="0.735172" stop-color="white" stop-opacity="0.160494"/>
</linearGradient>
<linearGradient id="paint4_linear_46_1556" x1="375.453" y1="0" x2="375.453" y2="272.082" gradientUnits="userSpaceOnUse">
<stop stop-color="white"/>
<stop offset="0.86012" stop-color="#EEF5FD"/>
<stop offset="1" stop-color="#D8E8F9"/>
</linearGradient>
<linearGradient id="paint5_linear_46_1556" x1="35.6869" y1="376.039" x2="648.071" y2="-156.53" gradientUnits="userSpaceOnUse">
<stop stop-color="white" stop-opacity="0"/>
<stop offset="0.47553" stop-color="white" stop-opacity="0.201388"/>
<stop offset="0.615" stop-color="white"/>
<stop offset="0.735172" stop-color="white" stop-opacity="0.160494"/>
</linearGradient>
<linearGradient id="paint6_linear_46_1556" x1="375.453" y1="0" x2="375.453" y2="272.082" gradientUnits="userSpaceOnUse">
<stop stop-color="white"/>
<stop offset="0.86012" stop-color="#EEF5FD"/>
<stop offset="1" stop-color="#D8E8F9"/>
</linearGradient>
<linearGradient id="paint7_linear_46_1556" x1="35.6869" y1="376.039" x2="648.071" y2="-156.53" gradientUnits="userSpaceOnUse">
<stop stop-color="white" stop-opacity="0"/>
<stop offset="0.47553" stop-color="white" stop-opacity="0.201388"/>
<stop offset="0.615" stop-color="white"/>
<stop offset="0.735172" stop-color="white" stop-opacity="0.160494"/>
</linearGradient>
<linearGradient id="paint8_linear_46_1556" x1="375.453" y1="0" x2="375.453" y2="272.082" gradientUnits="userSpaceOnUse">
<stop stop-color="white"/>
<stop offset="0.86012" stop-color="#EEF5FD"/>
<stop offset="1" stop-color="#D8E8F9"/>
</linearGradient>
<linearGradient id="paint9_linear_46_1556" x1="35.6869" y1="376.039" x2="648.071" y2="-156.53" gradientUnits="userSpaceOnUse">
<stop stop-color="white" stop-opacity="0"/>
<stop offset="0.47553" stop-color="white" stop-opacity="0.201388"/>
<stop offset="0.615" stop-color="white"/>
<stop offset="0.735172" stop-color="white" stop-opacity="0.160494"/>
</linearGradient>
<linearGradient id="paint10_linear_46_1556" x1="375.453" y1="0" x2="375.453" y2="272.082" gradientUnits="userSpaceOnUse">
<stop stop-color="white"/>
<stop offset="0.86012" stop-color="#EEF5FD"/>
<stop offset="1" stop-color="#D8E8F9"/>
</linearGradient>
<linearGradient id="paint11_linear_46_1556" x1="35.6869" y1="376.039" x2="648.071" y2="-156.53" gradientUnits="userSpaceOnUse">
<stop stop-color="white" stop-opacity="0"/>
<stop offset="0.47553" stop-color="white" stop-opacity="0.201388"/>
<stop offset="0.615" stop-color="white"/>
<stop offset="0.735172" stop-color="white" stop-opacity="0.160494"/>
</linearGradient>
<linearGradient id="paint12_linear_46_1556" x1="375.453" y1="0" x2="375.453" y2="272.082" gradientUnits="userSpaceOnUse">
<stop stop-color="white"/>
<stop offset="0.86012" stop-color="#EEF5FD"/>
<stop offset="1" stop-color="#D8E8F9"/>
</linearGradient>
<linearGradient id="paint13_linear_46_1556" x1="35.6869" y1="376.039" x2="648.071" y2="-156.53" gradientUnits="userSpaceOnUse">
<stop stop-color="white" stop-opacity="0"/>
<stop offset="0.47553" stop-color="white" stop-opacity="0.201388"/>
<stop offset="0.615" stop-color="white"/>
<stop offset="0.735172" stop-color="white" stop-opacity="0.160494"/>
</linearGradient>
<linearGradient id="paint14_linear_46_1556" x1="375.453" y1="0" x2="375.453" y2="272.082" gradientUnits="userSpaceOnUse">
<stop stop-color="white"/>
<stop offset="0.86012" stop-color="#EEF5FD"/>
<stop offset="1" stop-color="#D8E8F9"/>
</linearGradient>
<linearGradient id="paint15_linear_46_1556" x1="35.6869" y1="376.039" x2="648.071" y2="-156.53" gradientUnits="userSpaceOnUse">
<stop stop-color="white" stop-opacity="0"/>
<stop offset="0.47553" stop-color="white" stop-opacity="0.201388"/>
<stop offset="0.615" stop-color="white"/>
<stop offset="0.735172" stop-color="white" stop-opacity="0.160494"/>
</linearGradient>
<linearGradient id="paint16_linear_46_1556" x1="375.453" y1="0" x2="375.453" y2="272.082" gradientUnits="userSpaceOnUse">
<stop stop-color="white"/>
<stop offset="0.86012" stop-color="#EEF5FD"/>
<stop offset="1" stop-color="#D8E8F9"/>
</linearGradient>
<linearGradient id="paint17_linear_46_1556" x1="35.6869" y1="376.039" x2="648.071" y2="-156.53" gradientUnits="userSpaceOnUse">
<stop stop-color="white" stop-opacity="0"/>
<stop offset="0.47553" stop-color="white" stop-opacity="0.201388"/>
<stop offset="0.615" stop-color="white"/>
<stop offset="0.735172" stop-color="white" stop-opacity="0.160494"/>
</linearGradient>
<linearGradient id="paint18_linear_46_1556" x1="375.453" y1="0" x2="375.453" y2="272.082" gradientUnits="userSpaceOnUse">
<stop stop-color="white"/>
<stop offset="0.86012" stop-color="#EEF5FD"/>
<stop offset="1" stop-color="#D8E8F9"/>
</linearGradient>
<linearGradient id="paint19_linear_46_1556" x1="35.6869" y1="376.039" x2="648.071" y2="-156.53" gradientUnits="userSpaceOnUse">
<stop stop-color="white" stop-opacity="0"/>
<stop offset="0.47553" stop-color="white" stop-opacity="0.201388"/>
<stop offset="0.615" stop-color="white"/>
<stop offset="0.735172" stop-color="white" stop-opacity="0.160494"/>
</linearGradient>
<linearGradient id="paint20_linear_46_1556" x1="375.453" y1="0" x2="375.453" y2="272.082" gradientUnits="userSpaceOnUse">
<stop stop-color="white"/>
<stop offset="0.86012" stop-color="#EEF5FD"/>
<stop offset="1" stop-color="#D8E8F9"/>
</linearGradient>
<linearGradient id="paint21_linear_46_1556" x1="35.6869" y1="376.039" x2="648.071" y2="-156.53" gradientUnits="userSpaceOnUse">
<stop stop-color="white" stop-opacity="0"/>
<stop offset="0.47553" stop-color="white" stop-opacity="0.201388"/>
<stop offset="0.615" stop-color="white"/>
<stop offset="0.735172" stop-color="white" stop-opacity="0.160494"/>
</linearGradient>
<linearGradient id="paint22_linear_46_1556" x1="483.591" y1="239.077" x2="738.167" y2="224.371" gradientUnits="userSpaceOnUse">
<stop stop-color="#3763C2"/>
<stop offset="1" stop-color="#136EFF" stop-opacity="0.8"/>
</linearGradient>
<linearGradient id="paint23_linear_46_1556" x1="498.679" y1="290.379" x2="616.495" y2="109.159" gradientUnits="userSpaceOnUse">
<stop stop-color="white" stop-opacity="0"/>
<stop offset="0.47553" stop-color="white" stop-opacity="0.201388"/>
<stop offset="0.615" stop-color="white"/>
<stop offset="0.735172" stop-color="white" stop-opacity="0.160494"/>
</linearGradient>
<linearGradient id="paint24_linear_46_1556" x1="483.591" y1="239.077" x2="738.167" y2="224.371" gradientUnits="userSpaceOnUse">
<stop stop-color="#3763C2"/>
<stop offset="1" stop-color="#136EFF" stop-opacity="0.8"/>
</linearGradient>
<linearGradient id="paint25_linear_46_1556" x1="498.679" y1="290.379" x2="616.495" y2="109.159" gradientUnits="userSpaceOnUse">
<stop stop-color="white" stop-opacity="0"/>
<stop offset="0.47553" stop-color="white" stop-opacity="0.201388"/>
<stop offset="0.615" stop-color="white"/>
<stop offset="0.735172" stop-color="white" stop-opacity="0.160494"/>
</linearGradient>
<linearGradient id="paint26_linear_46_1556" x1="483.591" y1="239.077" x2="738.167" y2="224.371" gradientUnits="userSpaceOnUse">
<stop stop-color="#3763C2"/>
<stop offset="1" stop-color="#136EFF" stop-opacity="0.8"/>
</linearGradient>
<linearGradient id="paint27_linear_46_1556" x1="498.679" y1="290.379" x2="616.495" y2="109.159" gradientUnits="userSpaceOnUse">
<stop stop-color="white" stop-opacity="0"/>
<stop offset="0.47553" stop-color="white" stop-opacity="0.201388"/>
<stop offset="0.615" stop-color="white"/>
<stop offset="0.735172" stop-color="white" stop-opacity="0.160494"/>
</linearGradient>
<linearGradient id="paint28_linear_46_1556" x1="483.591" y1="239.077" x2="738.167" y2="224.371" gradientUnits="userSpaceOnUse">
<stop stop-color="#3763C2"/>
<stop offset="1" stop-color="#136EFF" stop-opacity="0.8"/>
</linearGradient>
<linearGradient id="paint29_linear_46_1556" x1="498.679" y1="290.379" x2="616.495" y2="109.159" gradientUnits="userSpaceOnUse">
<stop stop-color="white" stop-opacity="0"/>
<stop offset="0.47553" stop-color="white" stop-opacity="0.201388"/>
<stop offset="0.615" stop-color="white"/>
<stop offset="0.735172" stop-color="white" stop-opacity="0.160494"/>
</linearGradient>
<linearGradient id="paint30_linear_46_1556" x1="483.591" y1="239.077" x2="738.167" y2="224.371" gradientUnits="userSpaceOnUse">
<stop stop-color="#3763C2"/>
<stop offset="1" stop-color="#136EFF" stop-opacity="0.8"/>
</linearGradient>
<linearGradient id="paint31_linear_46_1556" x1="498.679" y1="290.379" x2="616.495" y2="109.159" gradientUnits="userSpaceOnUse">
<stop stop-color="white" stop-opacity="0"/>
<stop offset="0.47553" stop-color="white" stop-opacity="0.201388"/>
<stop offset="0.615" stop-color="white"/>
<stop offset="0.735172" stop-color="white" stop-opacity="0.160494"/>
</linearGradient>
<linearGradient id="paint32_linear_46_1556" x1="483.591" y1="239.077" x2="738.167" y2="224.371" gradientUnits="userSpaceOnUse">
<stop stop-color="#3763C2"/>
<stop offset="1" stop-color="#136EFF" stop-opacity="0.8"/>
</linearGradient>
<linearGradient id="paint33_linear_46_1556" x1="498.679" y1="290.379" x2="616.495" y2="109.159" gradientUnits="userSpaceOnUse">
<stop stop-color="white" stop-opacity="0"/>
<stop offset="0.47553" stop-color="white" stop-opacity="0.201388"/>
<stop offset="0.615" stop-color="white"/>
<stop offset="0.735172" stop-color="white" stop-opacity="0.160494"/>
</linearGradient>
<linearGradient id="paint34_linear_46_1556" x1="483.591" y1="239.077" x2="738.167" y2="224.371" gradientUnits="userSpaceOnUse">
<stop stop-color="#3763C2"/>
<stop offset="1" stop-color="#136EFF" stop-opacity="0.8"/>
</linearGradient>
<linearGradient id="paint35_linear_46_1556" x1="498.679" y1="290.379" x2="616.495" y2="109.159" gradientUnits="userSpaceOnUse">
<stop stop-color="white" stop-opacity="0"/>
<stop offset="0.47553" stop-color="white" stop-opacity="0.201388"/>
<stop offset="0.615" stop-color="white"/>
<stop offset="0.735172" stop-color="white" stop-opacity="0.160494"/>
</linearGradient>
<linearGradient id="paint36_linear_46_1556" x1="483.591" y1="239.077" x2="738.167" y2="224.371" gradientUnits="userSpaceOnUse">
<stop stop-color="#3763C2"/>
<stop offset="1" stop-color="#136EFF" stop-opacity="0.8"/>
</linearGradient>
<linearGradient id="paint37_linear_46_1556" x1="498.679" y1="290.379" x2="616.495" y2="109.159" gradientUnits="userSpaceOnUse">
<stop stop-color="white" stop-opacity="0"/>
<stop offset="0.47553" stop-color="white" stop-opacity="0.201388"/>
<stop offset="0.615" stop-color="white"/>
<stop offset="0.735172" stop-color="white" stop-opacity="0.160494"/>
</linearGradient>
<linearGradient id="paint38_linear_46_1556" x1="483.591" y1="239.077" x2="738.167" y2="224.371" gradientUnits="userSpaceOnUse">
<stop stop-color="#3763C2"/>
<stop offset="1" stop-color="#136EFF" stop-opacity="0.8"/>
</linearGradient>
<linearGradient id="paint39_linear_46_1556" x1="498.679" y1="290.379" x2="616.495" y2="109.159" gradientUnits="userSpaceOnUse">
<stop stop-color="white" stop-opacity="0"/>
<stop offset="0.47553" stop-color="white" stop-opacity="0.201388"/>
<stop offset="0.615" stop-color="white"/>
<stop offset="0.735172" stop-color="white" stop-opacity="0.160494"/>
</linearGradient>
<linearGradient id="paint40_linear_46_1556" x1="483.591" y1="239.077" x2="738.167" y2="224.371" gradientUnits="userSpaceOnUse">
<stop stop-color="#3763C2"/>
<stop offset="1" stop-color="#136EFF" stop-opacity="0.8"/>
</linearGradient>
<linearGradient id="paint41_linear_46_1556" x1="498.679" y1="290.379" x2="616.495" y2="109.159" gradientUnits="userSpaceOnUse">
<stop stop-color="white" stop-opacity="0"/>
<stop offset="0.47553" stop-color="white" stop-opacity="0.201388"/>
<stop offset="0.615" stop-color="white"/>
<stop offset="0.735172" stop-color="white" stop-opacity="0.160494"/>
</linearGradient>
</defs>
</svg>
